# This file uses centimeters as units for non-parametric coordinates.

mtllib Body.mtl
v 0.265848 0.280591 -0.551730
v 0.265848 0.280591 0.570603
v 0.265848 0.324517 -0.551730
v 0.265848 0.324517 0.570603
v 0.502283 0.324517 -0.551730
v 0.502283 0.324517 0.570603
v 0.502283 0.280591 -0.551730
v 0.502283 0.280591 0.570603
v 0.502283 0.210352 0.690125
v 0.265848 0.210352 0.690125
v 0.502283 0.254278 0.690125
v 0.265848 0.254278 0.690125
v 0.502283 0.210352 -0.671252
v 0.265848 0.210352 -0.671252
v 0.265848 0.254278 -0.671252
v 0.502283 0.254278 -0.671252
v -0.504252 0.280591 -0.551730
v -0.504252 0.280591 0.570603
v -0.504252 0.324517 -0.551730
v -0.504252 0.324517 0.570603
v -0.267817 0.324517 -0.551730
v -0.267817 0.324517 0.570603
v -0.267817 0.280591 -0.551730
v -0.267817 0.280591 0.570603
v -0.267817 0.210352 0.690125
v -0.504252 0.210352 0.690125
v -0.267817 0.254278 0.690125
v -0.504252 0.254278 0.690125
v -0.267817 0.210352 -0.671252
v -0.504252 0.210352 -0.671252
v -0.504252 0.254278 -0.671252
v -0.267817 0.254278 -0.671252
v 0.449118 0.267407 -0.473476
v 0.449118 0.228164 -0.593617
v 0.449118 0.133425 -0.643381
v 0.449118 0.038685 -0.593617
v 0.449118 -0.000557 -0.473476
v 0.299943 0.267407 -0.473476
v 0.299943 0.228164 -0.593617
v 0.299943 0.133425 -0.643381
v 0.299943 0.038685 -0.593617
v 0.299943 -0.000557 -0.473476
v 0.449118 0.133425 -0.473476
v 0.299943 0.133425 -0.473476
v 0.449118 0.267407 0.449887
v 0.299943 0.267407 0.449887
v 0.449118 -0.000557 0.449887
v 0.299943 -0.000557 0.449887
v 0.449118 0.133425 0.449887
v 0.299943 0.133425 0.449887
v 0.449118 0.038685 0.570028
v 0.449118 0.133425 0.619792
v 0.449118 0.228164 0.570028
v 0.299943 0.038685 0.570028
v 0.299943 0.133425 0.619792
v 0.299943 0.228164 0.570028
v -0.303046 0.267407 -0.473476
v -0.303046 0.228164 -0.593617
v -0.303046 0.133425 -0.643381
v -0.303046 0.038685 -0.593617
v -0.303046 -0.000557 -0.473476
v -0.452221 0.267407 -0.473476
v -0.452221 0.228164 -0.593617
v -0.452221 0.133425 -0.643381
v -0.452221 0.038685 -0.593617
v -0.452221 -0.000557 -0.473476
v -0.303046 0.133425 -0.473476
v -0.452221 0.133425 -0.473476
v -0.303046 0.267407 0.449887
v -0.452221 0.267407 0.449887
v -0.303046 -0.000557 0.449887
v -0.452221 -0.000557 0.449887
v -0.303046 0.133425 0.449887
v -0.452221 0.133425 0.449887
v -0.303046 0.038685 0.570028
v -0.303046 0.133425 0.619792
v -0.303046 0.228164 0.570028
v -0.452221 0.038685 0.570028
v -0.452221 0.133425 0.619792
v -0.452221 0.228164 0.570028
v -0.265544 0.099940 -0.437096
v -0.265544 0.099940 0.447040
v -0.265544 0.391835 -0.437096
v -0.265544 0.391835 0.447040
v 0.264103 0.391835 -0.437096
v 0.264103 0.391835 0.447040
v 0.264103 0.099940 -0.437096
v 0.264103 0.099940 0.447040
vt 0.375000 0.000000
vt 0.625000 0.000000
vt 0.625000 0.250000
vt 0.375000 0.250000
vt 0.625000 0.500000
vt 0.375000 0.500000
vt 0.625000 0.750000
vt 0.375000 0.750000
vt 0.625000 1.000000
vt 0.375000 1.000000
vt 0.625000 0.000000
vt 0.875000 0.000000
vt 0.875000 0.250000
vt 0.625000 0.250000
vt 0.125000 0.000000
vt 0.375000 0.000000
vt 0.375000 0.250000
vt 0.125000 0.250000
vt 0.875000 0.000000
vt 0.875000 0.250000
vt 0.125000 0.000000
vt 0.125000 0.250000
vt 0.375000 0.000000
vt 0.625000 0.000000
vt 0.625000 0.250000
vt 0.375000 0.250000
vt 0.625000 0.500000
vt 0.375000 0.500000
vt 0.625000 0.750000
vt 0.375000 0.750000
vt 0.625000 1.000000
vt 0.375000 1.000000
vt 0.625000 0.000000
vt 0.875000 0.000000
vt 0.875000 0.250000
vt 0.625000 0.250000
vt 0.125000 0.000000
vt 0.375000 0.000000
vt 0.375000 0.250000
vt 0.125000 0.250000
vt 0.875000 0.000000
vt 0.875000 0.250000
vt 0.125000 0.000000
vt 0.125000 0.250000
vt 0.406250 0.312500
vt 0.437500 0.312500
vt 0.437500 0.688440
vt 0.406250 0.688440
vt 0.468750 0.312500
vt 0.468750 0.688440
vt 0.500000 0.312500
vt 0.500000 0.688440
vt 0.531250 0.312500
vt 0.531250 0.688440
vt 0.389515 0.045765
vt 0.500000 0.000000
vt 0.500000 0.150000
vt 0.343750 0.156250
vt 0.389515 0.266735
vt 0.500000 0.312500
vt 0.500000 1.000000
vt 0.389515 0.954235
vt 0.500000 0.837500
vt 0.343750 0.843750
vt 0.389515 0.733265
vt 0.500000 0.687500
vt 0.000000 0.000000
vt 1.000000 0.000000
vt 1.000000 1.000000
vt 0.000000 1.000000
vt 0.000000 0.000000
vt 1.000000 0.000000
vt 1.000000 1.000000
vt 0.000000 1.000000
vt 0.000000 0.000000
vt 1.000000 0.000000
vt 1.000000 1.000000
vt 0.000000 1.000000
vt 0.000000 0.000000
vt 1.000000 0.000000
vt 1.000000 1.000000
vt 0.000000 1.000000
vt 0.000000 0.000000
vt 1.000000 0.000000
vt 1.000000 1.000000
vt 0.000000 1.000000
vt 0.000000 0.000000
vt 1.000000 0.000000
vt 1.000000 1.000000
vt 0.000000 1.000000
vt 0.406250 0.312500
vt 0.437500 0.312500
vt 0.437500 0.688440
vt 0.406250 0.688440
vt 0.468750 0.312500
vt 0.468750 0.688440
vt 0.500000 0.312500
vt 0.500000 0.688440
vt 0.531250 0.312500
vt 0.531250 0.688440
vt 0.389515 0.045765
vt 0.500000 0.000000
vt 0.500000 0.150000
vt 0.343750 0.156250
vt 0.389515 0.266735
vt 0.500000 0.312500
vt 0.500000 1.000000
vt 0.389515 0.954235
vt 0.500000 0.837500
vt 0.343750 0.843750
vt 0.389515 0.733265
vt 0.500000 0.687500
vt 0.406250 0.312500
vt 0.437500 0.312500
vt 0.437500 0.688440
vt 0.406250 0.688440
vt 0.468750 0.312500
vt 0.468750 0.688440
vt 0.500000 0.312500
vt 0.500000 0.688440
vt 0.531250 0.312500
vt 0.531250 0.688440
vt 0.389515 0.045765
vt 0.500000 0.000000
vt 0.500000 0.150000
vt 0.343750 0.156250
vt 0.389515 0.266735
vt 0.500000 0.312500
vt 0.500000 1.000000
vt 0.389515 0.954235
vt 0.500000 0.837500
vt 0.343750 0.843750
vt 0.389515 0.733265
vt 0.500000 0.687500
vt 0.000000 0.000000
vt 1.000000 0.000000
vt 1.000000 1.000000
vt 0.000000 1.000000
vt 0.000000 0.000000
vt 1.000000 0.000000
vt 1.000000 1.000000
vt 0.000000 1.000000
vt 0.000000 0.000000
vt 1.000000 0.000000
vt 1.000000 1.000000
vt 0.000000 1.000000
vt 0.000000 0.000000
vt 1.000000 0.000000
vt 1.000000 1.000000
vt 0.000000 1.000000
vt 0.000000 0.000000
vt 1.000000 0.000000
vt 1.000000 1.000000
vt 0.000000 1.000000
vt 0.000000 0.000000
vt 1.000000 0.000000
vt 1.000000 1.000000
vt 0.000000 1.000000
vt 0.406250 0.312500
vt 0.437500 0.312500
vt 0.437500 0.688440
vt 0.406250 0.688440
vt 0.468750 0.312500
vt 0.468750 0.688440
vt 0.500000 0.312500
vt 0.500000 0.688440
vt 0.531250 0.312500
vt 0.531250 0.688440
vt 0.389515 0.045765
vt 0.500000 0.000000
vt 0.500000 0.150000
vt 0.343750 0.156250
vt 0.389515 0.266735
vt 0.500000 0.312500
vt 0.500000 1.000000
vt 0.389515 0.954235
vt 0.500000 0.837500
vt 0.343750 0.843750
vt 0.389515 0.733265
vt 0.500000 0.687500
vt 0.375000 0.000000
vt 0.625000 0.000000
vt 0.625000 0.250000
vt 0.375000 0.250000
vt 0.625000 0.500000
vt 0.375000 0.500000
vt 0.625000 0.750000
vt 0.375000 0.750000
vt 0.625000 1.000000
vt 0.375000 1.000000
vt 0.875000 0.000000
vt 0.875000 0.250000
vt 0.125000 0.000000
vt 0.125000 0.250000
vn -1.000000 0.000000 0.000000
vn -1.000000 0.000000 0.000000
vn -1.000000 0.000000 0.000000
vn -1.000000 0.000000 0.000000
vn 0.000000 0.998404 -0.056470
vn 0.000000 0.998404 0.056469
vn 0.000000 0.998404 -0.056469
vn 0.000000 0.998404 0.056470
vn 1.000000 0.000000 0.000000
vn 1.000000 0.000000 0.000000
vn 1.000000 0.000000 0.000000
vn 1.000000 0.000000 0.000000
vn 0.000000 -0.998404 0.056469
vn 0.000000 -0.998404 -0.056469
vn 0.000000 -0.998404 0.056469
vn 0.000000 -0.998404 -0.056469
vn 0.000000 0.000000 1.000000
vn 0.000000 0.000000 1.000000
vn 0.000000 0.000000 1.000000
vn 0.000000 0.000000 1.000000
vn 0.000000 0.000000 -1.000000
vn 0.000000 0.000000 -1.000000
vn 0.000000 0.000000 -1.000000
vn 0.000000 0.000000 -1.000000
vn 0.000000 -0.862149 -0.506655
vn 0.000000 -0.862149 -0.506655
vn 1.000000 0.000000 0.000000
vn 1.000000 0.000000 0.000000
vn 0.000000 0.862149 0.506655
vn 0.000000 0.862149 0.506655
vn -1.000000 0.000000 0.000000
vn -1.000000 0.000000 0.000000
vn 0.000000 -0.862149 0.506655
vn 0.000000 -0.862149 0.506655
vn -1.000000 0.000000 0.000000
vn -1.000000 0.000000 0.000000
vn 0.000000 0.862149 -0.506655
vn 0.000000 0.862149 -0.506655
vn 1.000000 0.000000 0.000000
vn 1.000000 0.000000 0.000000
vn -1.000000 0.000000 0.000000
vn -1.000000 0.000000 0.000000
vn -1.000000 0.000000 0.000000
vn -1.000000 0.000000 0.000000
vn 0.000000 0.998404 -0.056470
vn 0.000000 0.998404 0.056469
vn 0.000000 0.998404 -0.056469
vn 0.000000 0.998404 0.056470
vn 1.000000 0.000000 0.000000
vn 1.000000 0.000000 0.000000
vn 1.000000 0.000000 0.000000
vn 1.000000 0.000000 0.000000
vn 0.000000 -0.998404 0.056469
vn 0.000000 -0.998404 -0.056469
vn 0.000000 -0.998404 0.056469
vn 0.000000 -0.998404 -0.056469
vn 0.000000 0.000000 1.000000
vn 0.000000 0.000000 1.000000
vn 0.000000 0.000000 1.000000
vn 0.000000 0.000000 1.000000
vn 0.000000 0.000000 -1.000000
vn 0.000000 0.000000 -1.000000
vn 0.000000 0.000000 -1.000000
vn 0.000000 0.000000 -1.000000
vn 0.000000 -0.862149 -0.506655
vn 0.000000 -0.862149 -0.506655
vn 1.000000 0.000000 0.000000
vn 1.000000 0.000000 0.000000
vn 0.000000 0.862149 0.506655
vn 0.000000 0.862149 0.506655
vn -1.000000 0.000000 0.000000
vn -1.000000 0.000000 0.000000
vn 0.000000 -0.862149 0.506655
vn 0.000000 -0.862149 0.506655
vn -1.000000 0.000000 0.000000
vn -1.000000 0.000000 0.000000
vn 0.000000 0.862149 -0.506655
vn 0.000000 0.862149 -0.506655
vn 1.000000 0.000000 0.000000
vn 1.000000 0.000000 0.000000
vn 0.000000 0.999294 -0.037580
vn 0.000000 0.950576 -0.310492
vn 0.000000 0.999294 -0.037580
vn 0.000000 0.950576 -0.310492
vn 0.000000 0.465023 -0.885298
vn 0.000000 0.465024 -0.885298
vn 0.000000 0.465024 -0.885298
vn 0.000000 0.465024 -0.885298
vn 0.000000 -0.465024 -0.885298
vn 0.000000 -0.465024 -0.885298
vn 0.000000 -0.465024 -0.885298
vn 0.000000 -0.465024 -0.885298
vn 0.000000 -0.950576 -0.310492
vn 0.000000 -0.950576 -0.310493
vn 0.000000 -0.950576 -0.310493
vn 0.000000 -0.950576 -0.310493
vn 1.000000 0.000000 0.000000
vn 1.000000 0.000000 0.000000
vn 1.000000 0.000000 0.000000
vn 1.000000 0.000000 0.000000
vn 1.000000 0.000000 0.000000
vn 1.000000 0.000000 0.000000
vn -1.000000 0.000000 0.000000
vn -1.000000 -0.000000 0.000000
vn -1.000000 0.000000 0.000000
vn -1.000000 0.000000 0.000000
vn -1.000000 0.000000 0.000000
vn -1.000000 0.000000 0.000000
vn 0.000000 1.000000 0.000000
vn 0.000000 1.000000 0.000000
vn 0.000000 -1.000000 0.000000
vn 0.000000 -1.000000 0.000000
vn 0.000000 -1.000000 0.000000
vn 0.000000 -1.000000 0.000000
vn 1.000000 0.000000 0.000000
vn 1.000000 0.000000 0.000000
vn 1.000000 0.000000 0.000000
vn 1.000000 -0.000000 0.000000
vn 1.000000 -0.000000 0.000000
vn 1.000000 -0.000000 0.000000
vn -1.000000 -0.000000 0.000000
vn -1.000000 -0.000000 0.000000
vn -1.000000 -0.000000 0.000000
vn -1.000000 -0.000000 0.000000
vn -1.000000 0.000000 0.000000
vn -1.000000 0.000000 0.000000
vn 0.000000 -0.950576 0.310493
vn 0.000000 -0.950576 0.310492
vn 0.000000 -0.950576 0.310492
vn 0.000000 -0.950576 0.310492
vn 0.000000 -0.465024 0.885298
vn 0.000000 -0.465024 0.885298
vn 0.000000 -0.465024 0.885298
vn 0.000000 -0.465024 0.885298
vn 0.000000 0.465024 0.885298
vn 0.000000 0.465024 0.885298
vn 0.000000 0.465024 0.885298
vn 0.000000 0.465024 0.885298
vn 0.000000 0.950576 0.310492
vn 0.000000 0.950576 0.310492
vn 0.000000 0.950576 0.310492
vn 0.000000 0.950576 0.310492
vn 1.000000 0.000000 0.000000
vn 1.000000 0.000000 0.000000
vn 1.000000 0.000000 0.000000
vn 1.000000 0.000000 0.000000
vn 1.000000 0.000000 0.000000
vn 1.000000 0.000000 0.000000
vn -1.000000 0.000000 0.000000
vn -1.000000 0.000000 0.000000
vn -1.000000 0.000000 0.000000
vn -1.000000 0.000000 0.000000
vn -1.000000 0.000000 0.000000
vn -1.000000 0.000000 0.000000
vn 0.000000 0.999294 -0.037580
vn 0.000000 0.950576 -0.310492
vn 0.000000 0.999294 -0.037580
vn 0.000000 0.950576 -0.310492
vn 0.000000 0.465024 -0.885298
vn 0.000000 0.465024 -0.885298
vn 0.000000 0.465024 -0.885298
vn 0.000000 0.465024 -0.885298
vn 0.000000 -0.465024 -0.885298
vn 0.000000 -0.465024 -0.885298
vn 0.000000 -0.465024 -0.885298
vn 0.000000 -0.465024 -0.885298
vn 0.000000 -0.950576 -0.310492
vn 0.000000 -0.950576 -0.310493
vn 0.000000 -0.950576 -0.310493
vn 0.000000 -0.950576 -0.310493
vn 1.000000 0.000000 0.000000
vn 1.000000 0.000000 0.000000
vn 1.000000 0.000000 0.000000
vn 1.000000 0.000000 0.000000
vn 1.000000 0.000000 0.000000
vn 1.000000 0.000000 0.000000
vn -1.000000 0.000000 0.000000
vn -1.000000 0.000000 0.000000
vn -1.000000 0.000000 0.000000
vn -1.000000 0.000000 0.000000
vn -1.000000 -0.000000 0.000000
vn -1.000000 -0.000000 0.000000
vn 0.000000 1.000000 0.000000
vn 0.000000 1.000000 0.000000
vn 0.000000 -1.000000 0.000000
vn 0.000000 -1.000000 0.000000
vn 0.000000 -1.000000 0.000000
vn 0.000000 -1.000000 0.000000
vn 1.000000 0.000000 0.000000
vn 1.000000 0.000000 0.000000
vn 1.000000 0.000000 0.000000
vn 1.000000 0.000000 0.000000
vn 1.000000 0.000000 0.000000
vn 1.000000 0.000000 0.000000
vn -1.000000 0.000000 0.000000
vn -1.000000 0.000000 0.000000
vn -1.000000 0.000000 0.000000
vn -1.000000 -0.000000 0.000000
vn -1.000000 -0.000000 0.000000
vn -1.000000 -0.000000 0.000000
vn 0.000000 -0.950576 0.310493
vn 0.000000 -0.950576 0.310493
vn 0.000000 -0.950576 0.310492
vn 0.000000 -0.950576 0.310492
vn 0.000000 -0.465024 0.885298
vn 0.000000 -0.465024 0.885298
vn 0.000000 -0.465024 0.885298
vn 0.000000 -0.465024 0.885298
vn 0.000000 0.465024 0.885298
vn 0.000000 0.465024 0.885298
vn 0.000000 0.465024 0.885298
vn 0.000000 0.465024 0.885298
vn 0.000000 0.950576 0.310492
vn 0.000000 0.950576 0.310492
vn 0.000000 0.950576 0.310492
vn 0.000000 0.950576 0.310492
vn 1.000000 -0.000000 0.000000
vn 1.000000 -0.000000 0.000000
vn 1.000000 -0.000000 0.000000
vn 1.000000 0.000000 0.000000
vn 1.000000 0.000000 0.000000
vn 1.000000 0.000000 0.000000
vn -1.000000 -0.000000 0.000000
vn -1.000000 0.000000 0.000000
vn -1.000000 -0.000000 0.000000
vn -1.000000 -0.000000 0.000000
vn -1.000000 -0.000000 0.000000
vn -1.000000 0.000000 0.000000
vn -1.000000 0.000000 0.000000
vn -1.000000 0.000000 0.000000
vn -1.000000 0.000000 0.000000
vn -1.000000 0.000000 0.000000
vn 0.000000 1.000000 0.000000
vn 0.000000 1.000000 0.000000
vn 0.000000 1.000000 0.000000
vn 0.000000 1.000000 0.000000
vn 1.000000 0.000000 0.000000
vn 1.000000 0.000000 0.000000
vn 1.000000 0.000000 0.000000
vn 1.000000 0.000000 0.000000
vn 0.000000 -1.000000 0.000000
vn 0.000000 -1.000000 0.000000
vn 0.000000 -1.000000 0.000000
vn 0.000000 -1.000000 0.000000
vn 0.000000 0.000000 1.000000
vn 0.000000 0.000000 1.000000
vn 0.000000 0.000000 1.000000
vn 0.000000 0.000000 1.000000
vn 0.000000 0.000000 -1.000000
vn 0.000000 0.000000 -1.000000
vn 0.000000 0.000000 -1.000000
vn 0.000000 0.000000 -1.000000
usemtl initialShadingGroup
f 1/1/1 2/2/2 3/4/3
f 3/4/3 2/2/2 4/3/4
f 3/4/5 4/3/6 5/6/7
f 5/6/7 4/3/6 6/5/8
f 5/6/9 6/5/10 7/8/11
f 7/8/11 6/5/10 8/7/12
f 7/8/13 8/7/14 1/10/15
f 1/10/15 8/7/14 2/9/16
f 10/11/17 9/12/18 12/14/19
f 12/14/19 9/12/18 11/13/20
f 13/15/21 14/16/22 16/18/23
f 16/18/23 14/16/22 15/17/24
f 2/2/16 8/19/14 10/11/25
f 10/11/25 8/19/14 9/12/26
f 6/20/10 11/13/27 8/19/12
f 8/19/12 11/13/27 9/12/28
f 6/20/8 4/3/6 11/13/29
f 11/13/29 4/3/6 12/14/30
f 4/3/4 2/2/2 12/14/31
f 12/14/31 2/2/2 10/11/32
f 7/21/13 1/1/15 13/15/33
f 13/15/33 1/1/15 14/16/34
f 3/4/3 15/17/35 1/1/1
f 1/1/1 15/17/35 14/16/36
f 3/4/5 5/22/7 15/17/37
f 15/17/37 5/22/7 16/18/38
f 5/22/9 7/21/11 16/18/39
f 16/18/39 7/21/11 13/15/40
f 17/23/41 18/24/42 19/26/43
f 19/26/43 18/24/42 20/25/44
f 19/26/45 20/25/46 21/28/47
f 21/28/47 20/25/46 22/27/48
f 21/28/49 22/27/50 23/30/51
f 23/30/51 22/27/50 24/29/52
f 23/30/53 24/29/54 17/32/55
f 17/32/55 24/29/54 18/31/56
f 26/33/57 25/34/58 28/36/59
f 28/36/59 25/34/58 27/35/60
f 29/37/61 30/38/62 32/40/63
f 32/40/63 30/38/62 31/39/64
f 18/24/56 24/41/54 26/33/65
f 26/33/65 24/41/54 25/34/66
f 22/42/50 27/35/67 24/41/52
f 24/41/52 27/35/67 25/34/68
f 22/42/48 20/25/46 27/35/69
f 27/35/69 20/25/46 28/36/70
f 20/25/44 18/24/42 28/36/71
f 28/36/71 18/24/42 26/33/72
f 23/43/53 17/23/55 29/37/73
f 29/37/73 17/23/55 30/38/74
f 19/26/43 31/39/75 17/23/41
f 17/23/41 31/39/75 30/38/76
f 19/26/45 21/44/47 31/39/77
f 31/39/77 21/44/47 32/40/78
f 21/44/49 23/43/51 32/40/79
f 32/40/79 23/43/51 29/37/80
f 33/45/81 34/46/82 38/48/83
f 38/48/83 34/46/82 39/47/84
f 34/46/85 35/49/86 39/47/87
f 39/47/87 35/49/86 40/50/88
f 35/49/89 36/51/90 40/50/91
f 40/50/91 36/51/90 41/52/92
f 36/51/93 37/53/94 41/52/95
f 41/52/95 37/53/94 42/54/96
f 34/55/97 33/56/98 43/57/99
f 35/58/100 34/55/97 43/57/99
f 36/59/101 35/58/100 43/57/99
f 37/60/102 36/59/101 43/57/99
f 38/61/103 39/62/104 44/63/105
f 39/62/104 40/64/106 44/63/105
f 40/64/106 41/65/107 44/63/105
f 41/65/107 42/66/108 44/63/105
f 33/67/81 38/68/83 45/70/109
f 45/70/109 38/68/83 46/69/110
f 42/71/111 37/72/112 48/74/113
f 48/74/113 37/72/112 47/73/114
f 43/75/99 33/76/98 49/78/115
f 49/78/115 33/76/98 45/77/116
f 37/79/117 43/80/118 47/82/119
f 47/82/119 43/80/118 49/81/120
f 38/83/103 44/84/105 46/86/121
f 46/86/121 44/84/105 50/85/122
f 44/87/123 42/88/124 50/90/125
f 50/90/125 42/88/124 48/89/126
f 47/91/127 51/92/128 48/94/129
f 48/94/129 51/92/128 54/93/130
f 51/92/131 52/95/132 54/93/133
f 54/93/133 52/95/132 55/96/134
f 52/95/135 53/97/136 55/96/137
f 55/96/137 53/97/136 56/98/138
f 53/97/139 45/99/140 56/98/141
f 56/98/141 45/99/140 46/100/142
f 51/101/143 47/102/144 49/103/145
f 52/104/146 51/101/143 49/103/145
f 53/105/147 52/104/146 49/103/145
f 45/106/148 53/105/147 49/103/145
f 48/107/149 54/108/150 50/109/151
f 54/108/150 55/110/152 50/109/151
f 55/110/152 56/111/153 50/109/151
f 56/111/153 46/112/154 50/109/151
f 57/113/155 58/114/156 62/116/157
f 62/116/157 58/114/156 63/115/158
f 58/114/159 59/117/160 63/115/161
f 63/115/161 59/117/160 64/118/162
f 59/117/163 60/119/164 64/118/165
f 64/118/165 60/119/164 65/120/166
f 60/119/167 61/121/168 65/120/169
f 65/120/169 61/121/168 66/122/170
f 58/123/171 57/124/172 67/125/173
f 59/126/174 58/123/171 67/125/173
f 60/127/175 59/126/174 67/125/173
f 61/128/176 60/127/175 67/125/173
f 62/129/177 63/130/178 68/131/179
f 63/130/178 64/132/180 68/131/179
f 64/132/180 65/133/181 68/131/179
f 65/133/181 66/134/182 68/131/179
f 57/135/155 62/136/157 69/138/183
f 69/138/183 62/136/157 70/137/184
f 66/139/185 61/140/186 72/142/187
f 72/142/187 61/140/186 71/141/188
f 67/143/173 57/144/172 73/146/189
f 73/146/189 57/144/172 69/145/190
f 61/147/191 67/148/192 71/150/193
f 71/150/193 67/148/192 73/149/194
f 62/151/177 68/152/179 70/154/195
f 70/154/195 68/152/179 74/153/196
f 68/155/197 66/156/198 74/158/199
f 74/158/199 66/156/198 72/157/200
f 71/159/201 75/160/202 72/162/203
f 72/162/203 75/160/202 78/161/204
f 75/160/205 76/163/206 78/161/207
f 78/161/207 76/163/206 79/164/208
f 76/163/209 77/165/210 79/164/211
f 79/164/211 77/165/210 80/166/212
f 77/165/213 69/167/214 80/166/215
f 80/166/215 69/167/214 70/168/216
f 75/169/217 71/170/218 73/171/219
f 76/172/220 75/169/217 73/171/219
f 77/173/221 76/172/220 73/171/219
f 69/174/222 77/173/221 73/171/219
f 72/175/223 78/176/224 74/177/225
f 78/176/224 79/178/226 74/177/225
f 79/178/226 80/179/227 74/177/225
f 80/179/227 70/180/228 74/177/225
f 81/181/229 82/182/230 83/184/231
f 83/184/231 82/182/230 84/183/232
f 83/184/233 84/183/234 85/186/235
f 85/186/235 84/183/234 86/185/236
f 85/186/237 86/185/238 87/188/239
f 87/188/239 86/185/238 88/187/240
f 87/188/241 88/187/242 81/190/243
f 81/190/243 88/187/242 82/189/244
f 82/182/245 88/191/246 84/183/247
f 84/183/247 88/191/246 86/192/248
f 87/193/249 81/181/250 85/194/251
f 85/194/251 81/181/250 83/184/252
