# Blender v2.68 (sub 0) OBJ File: ''
# www.blender.org
o plane20x20_tess
v -10.000000 -0.000002 10.000000
v 10.000000 -0.000002 10.000000
v -10.000000 0.000002 -10.000000
v 10.000000 0.000002 -10.000000
v 10.000000 -0.000001 5.000000
v 10.000000 0.000000 0.000000
v 10.000000 0.000001 -5.000000
v 5.000000 -0.000001 5.000000
v 0.000000 0.000000 0.000000
v -5.000000 0.000001 -5.000000
v -10.000000 -0.000001 5.000000
v -10.000000 0.000000 0.000000
v -10.000000 0.000001 -5.000000
v -5.000000 0.000002 -10.000000
v 0.000000 0.000002 -10.000000
v 5.000000 0.000002 -10.000000
v -5.000000 -0.000002 10.000000
v 0.000000 -0.000002 10.000000
v 5.000000 -0.000002 10.000000
v -5.000000 0.000000 0.000000
v -5.000000 -0.000001 5.000000
v 0.000000 -0.000001 5.000000
v 5.000000 0.000001 -5.000000
v 0.000000 0.000001 -5.000000
v 5.000000 0.000000 0.000000
vt 0.000000 0.000000
vt 0.250000 0.000000
vt 0.000000 0.250000
vt 0.000000 1.000000
vt 0.250000 0.750000
vt 0.250000 1.000000
vt 0.000000 0.750000
vt 0.000000 0.500000
vt 0.250000 0.500000
vt 0.250000 0.250000
vt 0.500000 0.500000
vt 0.500000 0.250000
vt 0.750000 0.250000
vt 0.500000 0.000000
vt 0.750000 0.000000
vt 1.000000 0.000000
vt 0.750000 1.000000
vt 1.000000 0.750000
vt 1.000000 1.000000
vt 0.500000 1.000000
vt 0.750000 0.750000
vt 0.500000 0.750000
vt 1.000000 0.500000
vt 0.750000 0.500000
vt 1.000000 0.250000
vn 0.000000 1.000000 0.000000
s 1
f 1/1/1 17/2/1 11/3/1
f 3/4/1 10/5/1 14/6/1
f 13/7/1 10/5/1 3/4/1
f 12/8/1 20/9/1 13/7/1
f 11/3/1 21/10/1 12/8/1
f 13/7/1 20/9/1 10/5/1
f 20/9/1 9/11/1 10/5/1
f 12/8/1 21/10/1 20/9/1
f 21/10/1 22/12/1 20/9/1
f 20/9/1 22/12/1 9/11/1
f 22/12/1 8/13/1 9/11/1
f 11/3/1 17/2/1 21/10/1
f 17/2/1 18/14/1 21/10/1
f 21/10/1 18/14/1 22/12/1
f 18/14/1 19/15/1 22/12/1
f 22/12/1 19/15/1 8/13/1
f 19/15/1 2/16/1 8/13/1
f 16/17/1 7/18/1 4/19/1
f 15/20/1 23/21/1 16/17/1
f 14/6/1 24/22/1 15/20/1
f 16/17/1 23/21/1 7/18/1
f 23/21/1 6/23/1 7/18/1
f 15/20/1 24/22/1 23/21/1
f 24/22/1 25/24/1 23/21/1
f 23/21/1 25/24/1 6/23/1
f 25/24/1 5/25/1 6/23/1
f 14/6/1 10/5/1 24/22/1
f 10/5/1 9/11/1 24/22/1
f 24/22/1 9/11/1 25/24/1
f 9/11/1 8/13/1 25/24/1
f 25/24/1 8/13/1 5/25/1
f 8/13/1 2/16/1 5/25/1
