# This file uses centimeters as units for non-parametric coordinates.

mtllib Turret.mtl
v -0.056871 0.404442 0.231286
v -0.056871 0.404442 0.827136
v -0.056871 0.502787 0.231286
v -0.056871 0.502787 0.827136
v 0.056871 0.502787 0.231286
v 0.056871 0.502787 0.827136
v 0.056871 0.404442 0.231286
v 0.056871 0.404442 0.827136
v 0.224863 0.392754 0.095420
v 0.224898 0.392754 -0.093344
v 0.091446 0.392754 -0.226844
v -0.097317 0.392754 -0.226879
v -0.230818 0.392754 -0.093427
v -0.230852 0.392754 0.095336
v -0.097401 0.392754 0.228837
v 0.091363 0.392754 0.228871
v 0.224863 0.512407 0.095420
v 0.224898 0.512407 -0.093344
v 0.091446 0.512407 -0.226844
v -0.097317 0.512407 -0.226879
v -0.230818 0.512407 -0.093427
v -0.230852 0.512407 0.095336
v -0.097401 0.512407 0.228837
v 0.091363 0.512407 0.228871
v -0.002977 0.392754 0.000996
v -0.002977 0.512407 0.000996
vt 0.375000 0.000000
vt 0.625000 0.000000
vt 0.375000 0.250000
vt 0.625000 0.250000
vt 0.375000 0.500000
vt 0.625000 0.500000
vt 0.375000 0.750000
vt 0.625000 0.750000
vt 0.375000 1.000000
vt 0.625000 1.000000
vt 0.875000 0.000000
vt 0.875000 0.250000
vt 0.125000 0.000000
vt 0.125000 0.250000
vt 0.375000 0.312500
vt 0.406250 0.312500
vt 0.406250 0.688440
vt 0.375000 0.688440
vt 0.437500 0.312500
vt 0.437500 0.688440
vt 0.468750 0.312500
vt 0.468750 0.688440
vt 0.500000 0.312500
vt 0.500000 0.688440
vt 0.531250 0.312500
vt 0.531250 0.688440
vt 0.562500 0.312500
vt 0.562500 0.688440
vt 0.593750 0.312500
vt 0.593750 0.688440
vt 0.625000 0.312500
vt 0.625000 0.688440
vt 0.500000 0.000000
vt 0.610485 0.045765
vt 0.500000 0.150000
vt 0.389515 0.045765
vt 0.343750 0.156250
vt 0.389515 0.266735
vt 0.500000 0.312500
vt 0.610485 0.266735
vt 0.656250 0.156250
vt 0.610485 0.954235
vt 0.500000 1.000000
vt 0.500000 0.837500
vt 0.389515 0.954235
vt 0.343750 0.843750
vt 0.389515 0.733265
vt 0.500000 0.687500
vt 0.610485 0.733265
vt 0.656250 0.843750
vn -1.000000 0.000000 0.000000
vn -1.000000 0.000000 0.000000
vn -1.000000 0.000000 0.000000
vn -1.000000 0.000000 0.000000
vn 0.000000 1.000000 0.000000
vn 0.000000 1.000000 0.000000
vn 0.000000 1.000000 0.000000
vn 0.000000 1.000000 0.000000
vn 1.000000 0.000000 0.000000
vn 1.000000 0.000000 0.000000
vn 1.000000 0.000000 0.000000
vn 1.000000 0.000000 0.000000
vn 0.000000 -1.000000 0.000000
vn 0.000000 -1.000000 0.000000
vn 0.000000 -1.000000 0.000000
vn 0.000000 -1.000000 0.000000
vn 0.000000 0.000000 1.000000
vn 0.000000 0.000000 1.000000
vn 0.000000 0.000000 1.000000
vn 0.000000 0.000000 1.000000
vn 0.000000 0.000000 -1.000000
vn 0.000000 0.000000 -1.000000
vn 0.000000 0.000000 -1.000000
vn 0.000000 0.000000 -1.000000
vn 1.000000 0.000000 0.000183
vn 1.000000 0.000000 0.000183
vn 1.000000 0.000000 0.000183
vn 1.000000 0.000000 0.000183
vn 0.707236 0.000000 -0.706978
vn 0.707236 0.000000 -0.706978
vn 0.707236 0.000000 -0.706978
vn 0.707236 0.000000 -0.706978
vn 0.000183 0.000000 -1.000000
vn 0.000183 0.000000 -1.000000
vn 0.000183 0.000000 -1.000000
vn 0.000183 0.000000 -1.000000
vn -0.706978 0.000000 -0.707236
vn -0.706978 0.000000 -0.707236
vn -0.706978 0.000000 -0.707236
vn -0.706978 0.000000 -0.707236
vn -1.000000 0.000000 -0.000183
vn -1.000000 0.000000 -0.000183
vn -1.000000 0.000000 -0.000183
vn -1.000000 0.000000 -0.000183
vn -0.707236 0.000000 0.706978
vn -0.707236 0.000000 0.706978
vn -0.707236 0.000000 0.706978
vn -0.707236 0.000000 0.706978
vn -0.000183 0.000000 1.000000
vn -0.000183 0.000000 1.000000
vn -0.000183 0.000000 1.000000
vn -0.000183 0.000000 1.000000
vn 0.706978 0.000000 0.707236
vn 0.706978 0.000000 0.707236
vn 0.706978 0.000000 0.707236
vn 0.706978 0.000000 0.707236
vn 0.000000 -1.000000 0.000000
vn 0.000000 -1.000000 0.000000
vn 0.000000 -1.000000 0.000000
vn 0.000000 -1.000000 0.000000
vn 0.000000 -1.000000 0.000000
vn 0.000000 -1.000000 0.000000
vn 0.000000 -1.000000 0.000000
vn 0.000000 -1.000000 0.000000
vn 0.000000 -1.000000 0.000000
vn 0.000000 1.000000 0.000000
vn 0.000000 1.000000 0.000000
vn 0.000000 1.000000 -0.000000
vn 0.000000 1.000000 0.000000
vn 0.000000 1.000000 -0.000000
vn 0.000000 1.000000 -0.000000
vn 0.000000 1.000000 -0.000000
vn 0.000000 1.000000 -0.000000
vn 0.000000 1.000000 0.000000
usemtl initialShadingGroup
f 1/1/1 2/2/2 3/3/3
f 3/3/3 2/2/2 4/4/4
f 3/3/5 4/4/6 5/5/7
f 5/5/7 4/4/6 6/6/8
f 5/5/9 6/6/10 7/7/11
f 7/7/11 6/6/10 8/8/12
f 7/7/13 8/8/14 1/9/15
f 1/9/15 8/8/14 2/10/16
f 2/2/17 8/11/18 4/4/19
f 4/4/19 8/11/18 6/12/20
f 7/13/21 1/1/22 5/14/23
f 5/14/23 1/1/22 3/3/24
f 9/15/25 10/16/26 17/18/27
f 17/18/27 10/16/26 18/17/28
f 10/16/29 11/19/30 18/17/31
f 18/17/31 11/19/30 19/20/32
f 11/19/33 12/21/34 19/20/35
f 19/20/35 12/21/34 20/22/36
f 12/21/37 13/23/38 20/22/39
f 20/22/39 13/23/38 21/24/40
f 13/23/41 14/25/42 21/24/43
f 21/24/43 14/25/42 22/26/44
f 14/25/45 15/27/46 22/26/47
f 22/26/47 15/27/46 23/28/48
f 15/27/49 16/29/50 23/28/51
f 23/28/51 16/29/50 24/30/52
f 16/29/53 9/31/54 24/30/55
f 24/30/55 9/31/54 17/32/56
f 10/33/57 9/34/58 25/35/59
f 11/36/60 10/33/57 25/35/59
f 12/37/61 11/36/60 25/35/59
f 13/38/62 12/37/61 25/35/59
f 14/39/63 13/38/62 25/35/59
f 15/40/64 14/39/63 25/35/59
f 16/41/65 15/40/64 25/35/59
f 9/34/58 16/41/65 25/35/59
f 17/42/66 18/43/67 26/44/68
f 18/43/67 19/45/69 26/44/68
f 19/45/69 20/46/70 26/44/68
f 20/46/70 21/47/71 26/44/68
f 21/47/71 22/48/72 26/44/68
f 22/48/72 23/49/73 26/44/68
f 23/49/73 24/50/74 26/44/68
f 24/50/74 17/42/66 26/44/68
